<svg xmlns="http://www.w3.org/2000/svg" viewBox="0 0 345.95 209.92"><defs><style>.cls-1{fill:#8ec8ed;}</style></defs><title>Asset 15</title><g id="Layer_2" data-name="Layer 2"><g id="Layer_1-2" data-name="Layer 1"><path class="cls-1" d="M6.12,118.53A111.14,111.14,0,0,1,29.17,99.45C37,94.55,46.8,88,56.21,86.8c8.5-1.06,13.37,12.23,15.38,18.48a145.14,145.14,0,0,1,6.87,33.14c1.38,18.65-3.08,39.76-20.46,49.92-4.78,2.8-14.72,6.59-19.83,2.38-2.5-2.07-1.28-7.14-.9-9.95a61.24,61.24,0,0,1,3.23-12.48,62.13,62.13,0,0,1,15.17-23.12,73.14,73.14,0,0,1,11.49-9.11c2-1.27,4-2.5,5.92-3.84,2.36-1.63,4.19-3.73,6.73-5,4.61-2.35,2.66-10.72-2.74-10.13-2.92.32-5.84-.13-8.72.39a34.15,34.15,0,0,0-8.67,3A64.79,64.79,0,0,0,44.45,131a80.1,80.1,0,0,0-20.09,28.76c-4.47,10.73-8.66,26.67-3.3,37.7,5.85,12,20.92,14.16,32.69,11.48,26.1-6,40.59-32.58,42.25-57.47,1-15-2-30.18-5.83-44.56-3.32-12.31-8.5-26.44-19.92-33.51-13.85-8.57-30.24.77-41.91,9A94,94,0,0,0,.45,114.16c-1.93,3.49,2.81,7.48,5.67,4.37Z"/><path class="cls-1" d="M100.87,31.13A651.63,651.63,0,0,0,93.52,108c-.45,12.69-.47,25.35.1,38,.29,6.51.72,13,1.49,19.45s1.68,13.89,5.39,19.52a6.08,6.08,0,0,0,11-1.44c2-6,1.34-12.87.78-19S111,152.2,110.34,146c-1.31-12.65-2.43-25.34-3.2-38a628.22,628.22,0,0,1,0-76c.21-3.53-5.7-4.43-6.26-.85Z"/><path class="cls-1" d="M105.56,123.38a31.19,31.19,0,0,1,19.06-14.63c7.72-2,17.72-1.19,21.89,6.48,4.36,8,3.72,18.4,5.31,27.15,2,10.79,7.71,19.27,18.1,23.15,6.16,2.31,9-5.81,5.74-9.87-3-3.85-4.23-10-5.16-14.65-1.06-5.31-1.51-10.65-2.24-16-1.65-12.26-5.79-24.83-17.26-31.25-21.12-11.84-53.11-.3-58.29,24.21-1.6,7.54,8.75,12.63,12.85,5.41Z"/><path class="cls-1" d="M221.78,71.35C218,56.08,199.53,61.64,190,67.05a60.48,60.48,0,0,0-26,29.73c-2.7,6.59-4.57,14-1,20.7,3.27,6.06,10,8.4,16.42,8.93,6.76.56,13.54-1.29,20.33-1.24,5.5,0,13.44.14,18.37,2.78-.85-.46.46-1-.31.68a8.78,8.78,0,0,1-1.82,2.52c-2.58,2.67-6.19,4.47-9.38,6.29-7.75,4.4-15.83,8-23.06,13.25-4.36,3.17-3,10.2,2.81,10.39,9.9.33,19-3,27.69-7.35,7.33-3.7,15.45-8.07,19.73-15.42,4.65-8,3.87-18.66-3.36-24.79-6.76-5.72-17.73-6.59-26.19-7.12-8.12-.51-15.72,1.34-23.57,1.43-.18,0-3.53-.08-3.4-.43.59-.07,1,.26,1.31,1s.29.85.27.07c.69-.47,1.34-4.67,1.7-5.6a38.4,38.4,0,0,1,2.15-4.48,42.78,42.78,0,0,1,13.45-14.94,40.77,40.77,0,0,1,9.66-4.93,13.64,13.64,0,0,1,3.57-.89c.74,0,1.49,0,2.23.13a.69.69,0,0,1-.74,0c4.39,5.26,12.34-.46,10.89-6.34Z"/><path class="cls-1" d="M225.87,5.14c-2.43,6.88-.89,16-.66,23.18.24,7.51.67,15,1.12,22.5.89,14.83,2.22,29.62,4.44,44.31,1.07,7.08,2.37,14.13,4,21.11,1.56,6.71,2.8,15,6.37,21A13.91,13.91,0,0,0,260,142.07c6.15-3.49,6.91-9.36,9.82-15.13,2.31-4.57-2.85-11.56-7.82-7.82a68.84,68.84,0,0,0-5.49,4.74c-.23.22-3.51,2.54-3.43,2.1l3.46,1.72-.57-1.79a29,29,0,0,0-1.36-4.47c-.87-3-1.67-6-2.42-9A284.94,284.94,0,0,1,246,77c-1.37-11.82-2.24-23.69-3-35.57-.38-6.29-.73-12.59-1.21-18.88s-.3-13.23-3.06-19.1S227.7,0,225.87,5.14Z"/><path class="cls-1" d="M218.07,84.1A192.59,192.59,0,0,1,246.5,62.65c5.14-3.14,10.51-5.94,15.87-8.69,4.95-2.55,11.6-5,15.16-9.41,2.75-3.41,2.2-9.16-2.73-10.34-6.3-1.51-13.47,1.1-19.28,3.51a119.87,119.87,0,0,0-18.09,9.41,131,131,0,0,0-30.3,26c-6.37,7.58,3.44,17.66,10.94,10.94Z"/><path class="cls-1" d="M263.93,66.5c2.24,9.7,4.67,19.36,6.92,29.07,1,4.57,2.12,9.18,2.89,13.81.43,2.58,1.73,8.2-.12,10.5L287,123.4c-2.15-8.08-4.65-15.5-4.56-24,.08-7,1.16-16,5.23-21.85a7.28,7.28,0,0,1,1.59-1.9c1.32-.92,2.45-.16,1.56-.76,1.3.88,2.53,4.18,2.94,5.11,2.83,6.41,4.39,13.38,7.86,19.51,4.17,7.37,18.65,24.37,26.42,10.72-2.12,3.72-4.29,1.87-9,3.56.81.25.53.14-.82-.36a35.5,35.5,0,0,0,3.28,1.45,20.38,20.38,0,0,0,10.69,1c6.6-1.09,12.47-6.44,13.67-13.13,1-5.45-5.87-11.06-10.26-6-3.09,3.57-8.07,0-11.61-.91a10.76,10.76,0,0,0-8.34,1.1c-1.11.68-3.1,2.35-3.57,3.61-.31.83,11-3,11.56-3,1.37,1.11,1.65,1.29.84.56q-.54-.53-1.05-1.08c-1.1-1.17-2.13-2.42-3.18-3.64a23.85,23.85,0,0,1-4.11-6.94c-2.64-6.54-4.27-13.58-8-19.62-5.11-8.17-13.82-12.83-23.44-9.61-8.83,2.95-13.81,10.74-16.75,19.13-5.64,16.08-5.37,38.6,4.46,53.14A8.09,8.09,0,0,0,287,127.64c3.43-10.59.61-20.53-2.46-30.84a197.12,197.12,0,0,0-13-33.48c-2.18-4.3-8.56-1.23-7.53,3.18Z"/></g></g></svg>